# xmcd CD database file
#
# Track frame offsets:
#	180
#	12950
#	21965
#	29880
#	43030
#	56405
#	65335
#	76182
#	86365
#	100640
#	113467
#	120720
#	125180
#	138035
#	157460
#	169525
#	172810
#	186955
#	201617
#
# Disc length: 2781 seconds
#
# Revision: 0
# Processed by: cddbd v1.5.1PL0 Copyright (c) Steve Scherf et al.
# Submitted via: CDex 1.51
#
DISCID=fe0adb13
DTITLE=Bash! - Erwischt... und bestraft
DYEAR=1996
DGENRE=Deut.-Punk
TTITLE0=Ich will es so
TTITLE1=Goldener Schuss
TTITLE2=Malocher
TTITLE3=Moments passing by
TTITLE4=Nichtsnutz
TTITLE5=Armer Wicht
TTITLE6=Halb so wild
TTITLE7=Lebenskreis
TTITLE8=Kanzler Kohl
TTITLE9=Herzlichen Glückwunsch
TTITLE10=C'mon baby dance with me
TTITLE11=Hans und Grete
TTITLE12=Hallus
TTITLE13=We do not worry...
TTITLE14=Short Songs
TTITLE15=S.D.B.
TTITLE16=No fun allowed
TTITLE17=Kein Arsch hört zu
TTITLE18=Peter Punk die Zwote
EXTD=YEAR: 1996
EXTT0=
EXTT1=
EXTT2=
EXTT3=
EXTT4=
EXTT5=
EXTT6=
EXTT7=
EXTT8=
EXTT9=
EXTT10=
EXTT11=
EXTT12=
EXTT13=
EXTT14=
EXTT15=
EXTT16=
EXTT17=
EXTT18=
PLAYORDER=
